HIERARCHY
ROOT Hips
{
	OFFSET 0.00000 0.00000 0.00000
	CHANNELS 6 Xposition Yposition Zposition Zrotation Yrotation Xrotation 
	JOINT LHipJoint
	{
		OFFSET 0 0 0
		CHANNELS 3 Zrotation Yrotation Xrotation
		JOINT LeftHip
		{
			OFFSET 1.64577 -1.42384 0.94276
			CHANNELS 3 Zrotation Yrotation Xrotation
			JOINT LeftKnee
			{
				OFFSET 2.11538 -5.81197 0.00000
				CHANNELS 3 Zrotation Yrotation Xrotation
				JOINT LeftAnkle
				{
					OFFSET 2.36541 -6.49893 0.00000
					CHANNELS 3 Zrotation Yrotation Xrotation
					JOINT LeftToe
					{
						OFFSET 0.17759 -0.48793 1.73865
						CHANNELS 3 Zrotation Yrotation Xrotation
						End Site
						{
							OFFSET 0.00000 -0.00000 0.91205
						}
					}
				}
			}
		}
	}
	JOINT RHipJoint
	{
		OFFSET 0 0 0
		CHANNELS 3 Zrotation Yrotation Xrotation
		JOINT RightHip
		{
			OFFSET -1.43750 -1.42384 0.94276
			CHANNELS 3 Zrotation Yrotation Xrotation
			JOINT RightKnee
			{
				OFFSET -2.10480 -5.78291 0.00000
				CHANNELS 3 Zrotation Yrotation Xrotation
				JOINT RightAnkle
				{
					OFFSET -2.34880 -6.45329 0.00000
					CHANNELS 3 Zrotation Yrotation Xrotation
					JOINT RightToe
					{
						OFFSET -0.22842 -0.62757 1.80469
						CHANNELS 3 Zrotation Yrotation Xrotation
						End Site
						{
							OFFSET -0.00000 -0.00000 0.95886
						}
					}
				}
			}
		}
	}
	JOINT lowerback
	{
		OFFSET 0 0 0
		CHANNELS 3 Zrotation Yrotation Xrotation
		JOINT Chest
		{
			OFFSET 0.06217 1.93758 -0.49272
			CHANNELS 3 Zrotation Yrotation Xrotation
			JOINT Chest2
			{
				OFFSET -0.03114 2.03621 -0.05830
				CHANNELS 3 Zrotation Yrotation Xrotation
				JOINT lowerneck
				{
					OFFSET 0 0 0
					CHANNELS 3 Zrotation Yrotation Xrotation
					JOINT Neck
					{
						OFFSET 0.04421 1.41010 0.26562
						CHANNELS 3 Zrotation Yrotation Xrotation
						JOINT Head
						{
							OFFSET -0.13407 1.43847 0.06181
							CHANNELS 3 Zrotation Yrotation Xrotation
							End Site
							{
								OFFSET -0.04980 1.45844 -0.00689
							}
						}
					}
				}
				JOINT LeftCollar
				{
					OFFSET 0 0 0
					CHANNELS 3 Zrotation Yrotation Xrotation
					JOINT LeftShoulder
					{
						OFFSET 2.18382 1.47753 -0.35694
CHANNELS 3 Zrotation Xrotation Yrotation
						JOINT LeftElbow
						{
OFFSET 0 -5.054600 0.000000
CHANNELS 3 Zrotation Xrotation Yrotation
							JOINT LeftWrist
							{
OFFSET 0 -3.390130 0.000000
CHANNELS 3 Zrotation Xrotation Yrotation
								JOINT lhand
								{
									OFFSET 0 0 0
CHANNELS 3 Zrotation Xrotation Yrotation
									JOINT LFingers
									{
OFFSET 0 -0.572420 -0.000000
CHANNELS 3 Zrotation Xrotation Yrotation
										End Site
										{
OFFSET 0 -0.461500 -0.000000
										}
									}
								}
								JOINT LThumb
								{
OFFSET 0 0.000000 0.000000
CHANNELS 3 Zrotation Xrotation Yrotation
									End Site
									{
OFFSET 0 -0.468550 0.468550
									}
								}
							}
						}
					}
				}
				JOINT RightCollar
				{
					OFFSET 0 0 0
					CHANNELS 3 Zrotation Yrotation Xrotation
					JOINT RightShoulder
					{
						OFFSET -2.06033 1.72839 -0.47437
CHANNELS 3 Zrotation Xrotation Yrotation
						JOINT RightElbow
						{
OFFSET 0 -5.070100 0.000000
CHANNELS 3 Zrotation Xrotation Yrotation
							JOINT RightWrist
							{
OFFSET 0 -3.149570 -0.000000
CHANNELS 3 Zrotation Xrotation Yrotation
								JOINT rhand
								{
									OFFSET 0 0 0
CHANNELS 3 Zrotation Xrotation Yrotation
									JOINT RFingers
									{
OFFSET 0 -0.718190 -0.000000
CHANNELS 3 Zrotation Xrotation Yrotation
										End Site
										{
OFFSET 0 -0.579020 -0.000000
										}
									}
								}
								JOINT RThumb
								{
OFFSET 0 0.000000 0.000000
CHANNELS 3 Zrotation Xrotation Yrotation
									End Site
									{
OFFSET 0 -0.587860 0.587860
									}
								}
							}
						}
					}
				}
			}
		}
	}
}
MOTION
Frames: 7
Frame Time: 0.008333333333333333
46.738833 15.252529 -0.321663 1132.878164 -89.718205 -1135.237179 0.000000 0.000000 0.000000 -24.426389 -11.492241 9.469953 1.210204 6.978904 19.652935 1.820077 9.019161 -30.082273 0.429104 -4.203954 -11.651083 0.000000 0.000000 0.000000 21.056940 11.165035 -12.127135 -3.180348 -10.981346 32.217027 -2.532149 -13.232858 -37.038134 -1.636781 8.061399 -22.902529 0.825637 -1.119935 7.081769 0.717009 -1.592586 4.803934 0.369772 -0.851705 0.984512 6.942138 7.502766 -9.128227 -1.331040 8.208333 37.843513 -0.665420 3.755757 15.109224 0.000000 0.000000 0.000000 8.224296 5.975052 -39.798392 17.049685 -26.923252 4.109804 18.028644 3.717169 -14.061232 0.000000 0.000000 0.000000 -7.125000 0.000000 0.000000 -8.714094 44.558694 -0.095094 0.000000 0.000000 0.000000 -4.633146 4.511774 24.799501 -16.157140 -25.732826 -3.714052 -19.027246 -18.668205 -0.126424 0.000000 0.000000 0.000000 7.125000 0.000000 0.000000 5.927123 29.820241 2.205462
46.911908 15.271326 -0.266422 1232.803472 -89.181843 -1235.432805 0.000000 0.000000 0.000000 -24.344569 -10.310191 8.653225 1.172935 6.874201 19.343279 1.623140 9.109971 -28.856057 0.431780 -4.216574 -11.686841 0.000000 0.000000 0.000000 20.588207 10.274324 -13.350673 -3.301166 -11.167205 32.846016 -2.445265 -12.449568 -36.040043 -2.561378 9.942681 -28.796415 0.236090 -0.832526 7.341528 0.493932 -1.244222 4.839713 0.454015 -0.688941 0.884316 6.821868 7.732828 -9.063040 -1.123309 8.465770 38.322865 -0.518488 3.854161 15.326961 0.000000 0.000000 0.000000 8.501702 6.195048 -39.039282 17.116615 -27.011250 4.140236 17.729251 4.175573 -15.692737 0.000000 0.000000 0.000000 -7.125000 0.000000 0.000000 -9.400461 46.196058 0.288922 0.000000 0.000000 0.000000 -4.105904 4.425452 23.960328 -15.462687 -24.786267 -3.417809 -18.740412 -18.021592 0.037573 0.000000 0.000000 0.000000 7.125000 0.000000 0.000000 6.162786 29.990394 2.268560
47.063681 15.305032 -0.206143 1246.585359 -88.338246 -1249.356628 0.000000 0.000000 0.000000 -24.997894 -11.032831 9.299952 1.054075 6.526776 18.321160 1.462787 10.621341 -28.881471 0.297775 -3.492912 -9.655835 0.000000 0.000000 0.000000 20.172958 9.311330 -14.652179 -3.469590 -11.418557 33.705286 -2.489167 -10.942560 -35.268559 -2.164686 9.176450 -26.366910 -0.140728 -0.598415 7.479593 0.373779 -0.953040 4.770267 0.525840 -0.548967 0.738044 6.713121 8.051659 -9.066205 -1.223292 8.975083 38.836492 -0.456905 4.017829 15.614186 0.000000 0.000000 0.000000 8.451442 6.992872 -38.406501 17.484246 -27.491509 4.308637 17.752363 4.132870 -20.210231 0.000000 0.000000 0.000000 -7.125000 0.000000 0.000000 -11.072552 50.740640 1.868030 0.000000 0.000000 0.000000 -3.956767 4.633028 23.764191 -15.129072 -24.325547 -3.278973 -17.722704 -17.456491 0.142767 0.000000 0.000000 0.000000 7.125000 0.000000 0.000000 6.968885 30.091971 2.552916
47.201405 15.337971 -0.167895 1239.491135 -87.687335 -1242.403356 0.000000 0.000000 0.000000 -25.887160 -11.838169 10.104160 0.914078 6.091315 17.049869 1.319852 11.597167 -28.678063 0.108128 -2.087460 -5.748523 0.000000 0.000000 0.000000 19.469773 8.503147 -15.834164 -3.702488 -11.753093 34.864809 -2.653559 -9.492914 -35.244009 -1.421827 7.535232 -21.313655 -0.979277 -0.391192 7.470068 0.203332 -0.727267 4.763283 0.805965 -0.451615 0.741850 6.785631 8.394237 -8.663696 -1.581939 9.634647 38.709923 -0.529289 4.265174 15.523362 0.000000 0.000000 0.000000 8.284994 7.588659 -37.588330 17.592146 -27.631671 4.358482 17.834774 4.783199 -23.450068 0.000000 0.000000 0.000000 -7.125000 0.000000 0.000000 -12.148028 54.036470 2.908517 0.000000 0.000000 0.000000 -3.903563 4.785230 23.895543 -14.921318 -24.036322 -3.193814 -17.297510 -16.720099 -0.340919 0.000000 0.000000 0.000000 7.125000 0.000000 0.000000 7.266329 29.585089 2.751099
47.328437 15.344946 -0.158116 1242.462170 -87.362986 -1245.733589 0.000000 0.000000 0.000000 -25.967874 -12.049878 10.313574 0.880232 5.980935 16.729148 1.191774 11.942810 -28.074896 0.051333 -1.462448 -4.022308 0.000000 0.000000 0.000000 19.517670 8.050730 -16.282693 -3.963165 -12.110924 36.126012 -2.569024 -9.074316 -34.534261 -1.177953 6.885902 -19.378859 -1.525356 -0.210388 7.689220 0.181374 -0.528281 4.820902 1.078208 -0.365600 0.681943 6.746278 8.717526 -8.267226 -1.761586 10.228458 38.512844 -0.519244 4.497838 15.375870 0.000000 0.000000 0.000000 8.072770 7.893724 -36.446281 17.311608 -27.266743 4.229154 18.973828 4.558632 -17.930473 0.000000 0.000000 0.000000 -7.125000 0.000000 0.000000 -8.838823 48.667293 0.805178 0.000000 0.000000 0.000000 -3.714261 4.924878 23.910643 -14.766844 -23.820241 -3.131185 -17.973029 -15.994029 -0.793781 0.000000 0.000000 0.000000 7.125000 0.000000 0.000000 6.708125 29.116403 2.612780
47.446915 15.332658 -0.147471 1251.812554 -87.438685 -1255.600835 0.000000 0.000000 0.000000 -25.656094 -12.512537 10.088746 0.978992 6.298195 17.652203 1.231497 11.841863 -28.268520 0.044778 -1.365164 -3.754207 0.000000 0.000000 0.000000 20.082774 7.650064 -15.943601 -4.280558 -12.524503 37.613838 -2.208151 -8.826213 -32.335789 -1.666096 8.129755 -23.110543 -1.351330 -0.189429 8.090305 0.218385 -0.505357 4.955392 1.019742 -0.355737 0.598261 6.893429 9.181679 -7.911071 -2.060664 11.036986 38.310861 -0.552116 4.835871 15.279106 0.000000 0.000000 0.000000 7.802224 8.324305 -36.191910 17.172020 -27.083985 4.165355 19.756284 3.831765 -19.406698 0.000000 0.000000 0.000000 -7.125000 0.000000 0.000000 -8.531323 50.308509 1.123036 0.000000 0.000000 0.000000 -3.466271 5.050883 23.914626 -14.734320 -23.774726 -3.118107 -18.800792 -15.862294 -0.607826 0.000000 0.000000 0.000000 7.125000 0.000000 0.000000 6.074856 29.313096 2.334789
47.553375 15.320836 -0.151585 1254.026160 -87.781257 -1258.046294 0.000000 0.000000 0.000000 -25.616454 -13.353381 9.541217 1.108831 6.689629 18.799372 1.297323 11.778657 -28.673089 0.102810 -2.063704 -5.681975 0.000000 0.000000 0.000000 20.337352 8.204714 -15.225459 -4.694796 -13.030564 39.484870 -1.776322 -8.424394 -29.401426 -2.403317 9.654689 -27.869958 -1.381103 -0.143026 8.197003 0.186064 -0.450207 5.008586 0.999702 -0.329930 0.593219 7.042800 9.544708 -7.807633 -2.286643 11.658200 38.316782 -0.570737 5.096086 15.332167 0.000000 0.000000 0.000000 7.586306 8.506540 -35.516290 16.820091 -26.619815 4.006417 20.289035 4.149441 -16.966466 0.000000 0.000000 0.000000 -7.125000 0.000000 0.000000 -7.325725 47.861534 0.521044 0.000000 0.000000 0.000000 -3.242032 5.231734 23.715029 -14.748140 -23.794116 -3.123601 -18.414731 -16.263005 -0.729776 0.000000 0.000000 0.000000 7.125000 0.000000 0.000000 6.368357 29.184340 2.468549
